{
  "accessors": [
    {
      "bufferView": 1,
      "componentType": 5126,
      "count": 996,
      "max": [
        0.10219831764698029,
        0.21398378908634186,
        0.4014822840690613
      ],
      "min": [
        -0.3705615699291229,
        -0.21398378908634186,
        -0.30011579394340515
      ],
      "type": "VEC3"
    },
    {
      "bufferView": 1,
      "byteOffset": 11952,
      "componentType": 5126,
      "count": 996,
      "max": [
        0.9984396696090698,
        0.993177056312561,
        0.9912002682685852
      ],
      "min": [
        -0.9939311742782593,
        -0.993177056312561,
        -0.9135972857475281
      ],
      "type": "VEC3"
    },
    {
      "bufferView": 0,
      "componentType": 5125,
      "count": 438,
      "type": "SCALAR"
    },
    {
      "bufferView": 1,
      "byteOffset": 23904,
      "componentType": 5126,
      "count": 996,
      "max": [
        0.10219831764698029,
        0.21398378908634186,
        0.4014822840690613
      ],
      "min": [
        -0.3705615699291229,
        -0.21398378908634186,
        -0.30011579394340515
      ],
      "type": "VEC3"
    },
    {
      "bufferView": 1,
      "byteOffset": 35856,
      "componentType": 5126,
      "count": 996,
      "max": [
        0.9984396696090698,
        0.993177056312561,
        0.9912002682685852
      ],
      "min": [
        -0.9939311742782593,
        -0.993177056312561,
        -0.9135972857475281
      ],
      "type": "VEC3"
    },
    {
      "bufferView": 0,
      "byteOffset": 1752,
      "componentType": 5125,
      "count": 228,
      "type": "SCALAR"
    },
    {
      "bufferView": 1,
      "byteOffset": 47808,
      "componentType": 5126,
      "count": 996,
      "max": [
        0.10219831764698029,
        0.21398378908634186,
        0.4014822840690613
      ],
      "min": [
        -0.3705615699291229,
        -0.21398378908634186,
        -0.30011579394340515
      ],
      "type": "VEC3"
    },
    {
      "bufferView": 1,
      "byteOffset": 59760,
      "componentType": 5126,
      "count": 996,
      "max": [
        0.9984396696090698,
        0.993177056312561,
        0.9912002682685852
      ],
      "min": [
        -0.9939311742782593,
        -0.993177056312561,
        -0.9135972857475281
      ],
      "type": "VEC3"
    },
    {
      "bufferView": 0,
      "byteOffset": 2664,
      "componentType": 5125,
      "count": 42,
      "type": "SCALAR"
    },
    {
      "bufferView": 1,
      "byteOffset": 71712,
      "componentType": 5126,
      "count": 996,
      "max": [
        0.10219831764698029,
        0.21398378908634186,
        0.4014822840690613
      ],
      "min": [
        -0.3705615699291229,
        -0.21398378908634186,
        -0.30011579394340515
      ],
      "type": "VEC3"
    },
    {
      "bufferView": 1,
      "byteOffset": 83664,
      "componentType": 5126,
      "count": 996,
      "max": [
        0.9984396696090698,
        0.993177056312561,
        0.9912002682685852
      ],
      "min": [
        -0.9939311742782593,
        -0.993177056312561,
        -0.9135972857475281
      ],
      "type": "VEC3"
    },
    {
      "bufferView": 0,
      "byteOffset": 2832,
      "componentType": 5125,
      "count": 36,
      "type": "SCALAR"
    },
    {
      "bufferView": 1,
      "byteOffset": 95616,
      "componentType": 5126,
      "count": 996,
      "max": [
        0.10219831764698029,
        0.21398378908634186,
        0.4014822840690613
      ],
      "min": [
        -0.3705615699291229,
        -0.21398378908634186,
        -0.30011579394340515
      ],
      "type": "VEC3"
    },
    {
      "bufferView": 1,
      "byteOffset": 107568,
      "componentType": 5126,
      "count": 996,
      "max": [
        0.9984396696090698,
        0.993177056312561,
        0.9912002682685852
      ],
      "min": [
        -0.9939311742782593,
        -0.993177056312561,
        -0.9135972857475281
      ],
      "type": "VEC3"
    },
    {
      "bufferView": 0,
      "byteOffset": 2976,
      "componentType": 5125,
      "count": 216,
      "type": "SCALAR"
    },
    {
      "bufferView": 1,
      "byteOffset": 119520,
      "componentType": 5126,
      "count": 996,
      "max": [
        0.10219831764698029,
        0.21398378908634186,
        0.4014822840690613
      ],
      "min": [
        -0.3705615699291229,
        -0.21398378908634186,
        -0.30011579394340515
      ],
      "type": "VEC3"
    },
    {
      "bufferView": 1,
      "byteOffset": 131472,
      "componentType": 5126,
      "count": 996,
      "max": [
        0.9984396696090698,
        0.993177056312561,
        0.9912002682685852
      ],
      "min": [
        -0.9939311742782593,
        -0.993177056312561,
        -0.9135972857475281
      ],
      "type": "VEC3"
    },
    {
      "bufferView": 0,
      "byteOffset": 3840,
      "componentType": 5125,
      "count": 96,
      "type": "SCALAR"
    },
    {
      "bufferView": 1,
      "byteOffset": 143424,
      "componentType": 5126,
      "count": 996,
      "max": [
        0.10219831764698029,
        0.21398378908634186,
        0.4014822840690613
      ],
      "min": [
        -0.3705615699291229,
        -0.21398378908634186,
        -0.30011579394340515
      ],
      "type": "VEC3"
    },
    {
      "bufferView": 1,
      "byteOffset": 155376,
      "componentType": 5126,
      "count": 996,
      "max": [
        0.9984396696090698,
        0.993177056312561,
        0.9912002682685852
      ],
      "min": [
        -0.9939311742782593,
        -0.993177056312561,
        -0.9135972857475281
      ],
      "type": "VEC3"
    },
    {
      "bufferView": 0,
      "byteOffset": 4224,
      "componentType": 5125,
      "count": 330,
      "type": "SCALAR"
    }
  ],
  "asset": {
    "extras": {
      "author": "Maf'j Alvarez (https://sketchfab.com/blujay)",
      "license": "CC-BY-NC-4.0 (http://creativecommons.org/licenses/by-nc/4.0/)",
      "source": "https://sketchfab.com/3d-models/chicken-0098586123fc435f86c7f5cb3d3b8a79",
      "title": "chicken"
    },
    "generator": "Sketchfab-12.67.0",
    "version": "2.0"
  },
  "bufferViews": [
    {
      "buffer": 0,
      "byteLength": 5544,
      "name": "floatBufferViews",
      "target": 34963
    },
    {
      "buffer": 0,
      "byteLength": 167328,
      "byteOffset": 5544,
      "byteStride": 12,
      "name": "floatBufferViews",
      "target": 34962
    }
  ],
  "buffers": [
    {
      "byteLength": 172872,
      "uri": "scene.bin"
    }
  ],
  "materials": [
    {
      "name": "white",
      "pbrMetallicRoughness": {
        "metallicFactor": 0.0,
        "roughnessFactor": 0.5
      }
    },
    {
      "name": "pale_red",
      "pbrMetallicRoughness": {
        "baseColorFactor": [
          0.8,
          0.062775,
          0.0654181,
          1.0
        ],
        "metallicFactor": 0.0,
        "roughnessFactor": 0.5
      }
    },
    {
      "name": "gold",
      "pbrMetallicRoughness": {
        "baseColorFactor": [
          0.7999999999999999,
          0.2629349999999999,
          0.020781000000000008,
          1.0
        ],
        "metallicFactor": 0.0,
        "roughnessFactor": 0.5
      }
    },
    {
      "name": "black",
      "pbrMetallicRoughness": {
        "baseColorFactor": [
          0.0,
          0.0,
          0.0,
          1.0
        ],
        "metallicFactor": 0.0,
        "roughnessFactor": 0.5
      }
    },
    {
      "name": "pale_grey",
      "pbrMetallicRoughness": {
        "baseColorFactor": [
          0.841209,
          0.816927,
          0.779076,
          1.0
        ],
        "metallicFactor": 0.0,
        "roughnessFactor": 0.5
      }
    },
    {
      "name": "mid_grey",
      "pbrMetallicRoughness": {
        "baseColorFactor": [
          0.603821,
          0.601819,
          0.57174,
          1.0
        ],
        "metallicFactor": 0.0,
        "roughnessFactor": 0.5
      }
    },
    {
      "name": "buttermilk",
      "pbrMetallicRoughness": {
        "baseColorFactor": [
          0.8,
          0.574403,
          0.237822,
          1.0
        ],
        "metallicFactor": 0.0,
        "roughnessFactor": 0.34927591463414637
      }
    }
  ],
  "meshes": [
    {
      "name": "Object_0",
      "primitives": [
        {
          "attributes": {
            "NORMAL": 1,
            "POSITION": 0
          },
          "indices": 2,
          "material": 0,
          "mode": 4
        }
      ]
    },
    {
      "name": "Object_1",
      "primitives": [
        {
          "attributes": {
            "NORMAL": 4,
            "POSITION": 3
          },
          "indices": 5,
          "material": 1,
          "mode": 4
        }
      ]
    },
    {
      "name": "Object_2",
      "primitives": [
        {
          "attributes": {
            "NORMAL": 7,
            "POSITION": 6
          },
          "indices": 8,
          "material": 2,
          "mode": 4
        }
      ]
    },
    {
      "name": "Object_3",
      "primitives": [
        {
          "attributes": {
            "NORMAL": 10,
            "POSITION": 9
          },
          "indices": 11,
          "material": 3,
          "mode": 4
        }
      ]
    },
    {
      "name": "Object_4",
      "primitives": [
        {
          "attributes": {
            "NORMAL": 13,
            "POSITION": 12
          },
          "indices": 14,
          "material": 4,
          "mode": 4
        }
      ]
    },
    {
      "name": "Object_5",
      "primitives": [
        {
          "attributes": {
            "NORMAL": 16,
            "POSITION": 15
          },
          "indices": 17,
          "material": 5,
          "mode": 4
        }
      ]
    },
    {
      "name": "Object_6",
      "primitives": [
        {
          "attributes": {
            "NORMAL": 19,
            "POSITION": 18
          },
          "indices": 20,
          "material": 6,
          "mode": 4
        }
      ]
    }
  ],
  "nodes": [
    {
      "children": [
        1
      ],
      "matrix": [
        0.9263753890991211,
        0.0,
        0.0,
        0.0,
        0.0,
        2.056966572847865e-16,
        -0.9263753890991211,
        0.0,
        0.0,
        0.9263753890991211,
        2.056966572847865e-16,
        0.0,
        0.0,
        0.0,
        0.0,
        1.0
      ],
      "name": "Sketchfab_model"
    },
    {
      "children": [
        2
      ],
      "name": "root"
    },
    {
      "children": [
        3
      ],
      "matrix": [
        1.0,
        0.0,
        0.0,
        0.0,
        0.0,
        2.220446049250313e-16,
        1.0,
        0.0,
        0.0,
        -1.0,
        2.220446049250313e-16,
        0.0,
        0.0,
        0.0,
        0.0,
        1.0
      ],
      "name": "Correction matrix"
    },
    {
      "children": [
        4
      ],
      "name": "GLTF_SceneRootNode"
    },
    {
      "children": [
        5
      ],
      "matrix": [
        -1.0,
        0.0,
        -8.742277657347586e-08,
        0.0,
        0.0,
        1.0,
        0.0,
        0.0,
        8.742277657347586e-08,
        0.0,
        -1.0,
        0.0,
        0.0,
        0.0,
        0.0,
        1.0
      ],
      "name": "UnityGlTF_correctionMatrix_0"
    },
    {
      "children": [
        6,
        7,
        8,
        9,
        10,
        11,
        12
      ],
      "matrix": [
        1.0,
        0.0,
        0.0,
        0.0,
        0.0,
        -0.04744578152894974,
        0.9988738894462585,
        0.0,
        0.0,
        -0.9988738894462585,
        -0.04744578152894974,
        0.0,
        0.0,
        0.41999998688697815,
        0.0,
        1.0
      ],
      "name": "node_chicken_-4772_1"
    },
    {
      "mesh": 0,
      "name": "Object_6"
    },
    {
      "mesh": 1,
      "name": "Object_7"
    },
    {
      "mesh": 2,
      "name": "Object_8"
    },
    {
      "mesh": 3,
      "name": "Object_9"
    },
    {
      "mesh": 4,
      "name": "Object_10"
    },
    {
      "mesh": 5,
      "name": "Object_11"
    },
    {
      "mesh": 6,
      "name": "Object_12"
    }
  ],
  "scene": 0,
  "scenes": [
    {
      "name": "Sketchfab_Scene",
      "nodes": [
        0
      ]
    }
  ]
}
